<?xml version="1.0" encoding="iso-8859-1"?>
<!-- Generator: Adobe Illustrator 19.0.0, SVG Export Plug-In . SVG Version: 6.00 Build 0)  -->
<svg version="1.1" id="Capa_1" xmlns="http://www.w3.org/2000/svg" xmlns:xlink="http://www.w3.org/1999/xlink" x="0px" y="0px"
	 viewBox="0 0 512 512" style="enable-background:new 0 0 512 512;" xml:space="preserve">
<circle style="fill:#ADE5FF;" cx="256.001" cy="256.001" r="246.001"/>
<circle style="fill:#EDF2FA;" cx="256.001" cy="256.001" r="196.001"/>
<path style="fill:#FFC66C;" d="M389.015,163.998H208.189c-19.324,0-34.988,15.665-34.988,34.988l0,0
	c0,14.963,9.395,27.727,22.607,32.726c2.415,0.914,4.022,3.213,4.022,5.795v148.188c0,6.84,5.545,12.385,12.385,12.385H384.99
	c6.84,0,12.385-5.545,12.385-12.385V237.507c0-2.582,1.607-4.881,4.022-5.795c13.212-5,22.607-17.763,22.607-32.726l0,0
	C424.003,179.663,408.338,163.998,389.015,163.998z"/>
<path style="fill:#FFB954;" d="M199.829,237.507c0-2.582-1.607-4.881-4.022-5.795c-13.211-5-22.607-17.763-22.607-32.726l0,0
	c0-19.323,15.665-34.988,34.988-34.988h137.85c0.626-2.619,0.959-5.353,0.959-8.164l0,0c0-19.323-15.665-34.988-34.988-34.988
	H131.183c-19.324,0-34.988,15.665-34.988,34.988l0,0c0,14.963,9.395,27.727,22.607,32.726c2.415,0.914,4.022,3.213,4.022,5.795
	v148.187c0,6.84,5.545,12.385,12.385,12.385h64.621v-117.42H199.829z"/>
<path style="fill:#A0E557;" d="M199.829,237.507c0-2.582-1.606-4.881-4.021-5.795c-13.211-5-22.606-17.763-22.606-32.726l0,0
	c0-0.674,0.023-1.341,0.061-2.005h-1.733c0,0-6.74-0.219-17.003,3.538c-17.257,7.56-29.743,23.979-31.703,43.507v10.753
	c2.123,21.242,16.696,38.807,36.321,45.3c-2.981,5.321-4.688,11.453-4.688,17.986c0,20.358,16.504,36.862,36.862,36.862h8.51
	L199.829,237.507L199.829,237.507z"/>
<path d="M110.32,388.209c-1.859,1.859-2.93,4.439-2.93,7.07c0,2.63,1.07,5.21,2.93,7.069c1.86,1.86,4.44,2.931,7.07,2.931
	s5.21-1.07,7.07-2.931c1.859-1.859,2.93-4.439,2.93-7.069c0-2.631-1.07-5.211-2.93-7.07c-1.86-1.86-4.44-2.93-7.07-2.93
	S112.181,386.349,110.32,388.209z"/>
<path d="M466.42,110.111c-3.152-4.536-9.384-5.657-13.919-2.505s-5.656,9.384-2.505,13.919
	c65.153,93.75,53.75,220.486-27.115,301.352C378.306,467.452,319.041,492,256.002,492s-122.304-24.548-166.878-69.123
	c-44.575-44.574-69.123-103.84-69.123-166.878S44.549,133.695,89.124,89.12C170.648,7.597,298.036-3.353,392.019,63.086
	c4.511,3.187,10.751,2.114,13.938-2.394c3.188-4.51,2.116-10.75-2.394-13.938c-48.7-34.427-108.442-50.74-168.215-45.927
	c-60.462,4.865-117.415,31.199-160.367,74.15c-48.352,48.353-74.98,112.641-74.98,181.021s26.629,132.668,74.98,181.021
	C123.335,485.372,187.622,512,256.002,512s132.668-26.629,181.021-74.98c42.699-42.7,69.005-99.307,74.07-159.391
	C516.099,218.258,500.233,158.767,466.42,110.111z"/>
<path d="M422.956,89.196c1.954,1.965,4.521,2.947,7.089,2.947c2.551,0,5.102-0.97,7.053-2.911
	c3.915-3.895,3.932-10.227,0.036-14.142l-0.189-0.19c-3.896-3.917-10.227-3.932-14.142-0.036
	c-3.915,3.895-3.932,10.227-0.036,14.142L422.956,89.196z"/>
<path d="M163.343,417.314c-4.788-2.757-10.901-1.108-13.655,3.677c-2.756,4.786-1.109,10.9,3.677,13.655
	C184.446,452.542,219.938,462,256.003,462c113.59,0,206.001-92.412,206.001-206.001S369.593,49.997,256.003,49.997
	S50.002,142.409,50.002,255.998c0,36.183,9.517,71.775,27.521,102.932c2.763,4.78,8.878,6.417,13.662,3.654
	c4.781-2.764,6.418-8.88,3.654-13.662c-16.248-28.116-24.837-60.249-24.837-92.924c0-29.836,7.073-58.048,19.612-83.064
	c4.347,10.493,12.582,19.21,23.208,23.972v145.637c0,12.343,10.042,22.385,22.386,22.385h54.621v20.768
	c0,12.343,10.042,22.385,22.385,22.385h150.752c-30.275,21.357-67.178,33.919-106.964,33.919
	C223.435,441.999,191.394,433.463,163.343,417.314z M407.375,363.965V240.058c15.206-6.814,25.515-21.725,26.538-38.352
	c5.254,17.183,8.09,35.411,8.09,54.291C442.003,296.223,429.164,333.503,407.375,363.965z M417.916,164.544
	c-7.823-6.575-17.905-10.546-28.901-10.546h-32.064c-0.968-23.958-20.751-43.152-44.942-43.152H139.84
	c31.853-25.542,72.25-40.848,116.163-40.848C325.342,69.997,385.933,108.142,417.916,164.544z M106.193,155.834
	c0-13.778,11.21-24.988,24.988-24.988h180.826c13.16,0,23.97,10.229,24.914,23.152H208.188c-20.861,0-38.447,14.274-43.515,33.567
	c-3.524,0.543-8.162,1.578-13.584,3.563c-0.194,0.07-0.387,0.147-0.576,0.231c-6.625,2.902-12.572,6.855-17.69,11.606v-8.611
	c0-6.687-4.212-12.773-10.481-15.146C112.682,175.553,106.193,166.159,106.193,155.834z M189.829,344.884
	c-14.121-0.776-25.373-12.507-25.373-26.819c0-4.585,1.18-9.114,3.412-13.099c1.459-2.604,1.679-5.724,0.599-8.507
	c-1.08-2.782-3.348-4.938-6.182-5.875c-16.229-5.369-27.595-19.614-29.463-36.302v-9.745c1.711-15.14,11.305-28.426,25.436-34.735
	c2.194-0.79,4.165-1.352,5.883-1.76c2.916,14.003,12.444,26.082,25.688,32.017V344.884z M132.822,342.543v-46.646
	c3.988,3.694,8.472,6.902,13.381,9.5c-1.153,4.108-1.747,8.376-1.747,12.669c0,9.989,3.151,19.25,8.498,26.862h-17.746
	C133.893,344.928,132.822,343.858,132.822,342.543z M209.829,385.695V237.507c0-6.688-4.213-12.775-10.482-15.146
	c-9.657-3.655-16.146-13.049-16.146-23.374c0-13.778,11.21-24.988,24.988-24.988h180.826c13.778,0,24.988,11.21,24.988,24.988
	c0,10.325-6.488,19.719-16.143,23.373c-6.271,2.371-10.485,8.458-10.485,15.147v148.189c0,1.315-1.07,2.385-2.386,2.385H212.214
	C210.898,388.08,209.829,387.011,209.829,385.695z"/>
<path d="M252.394,335.557l-5.868,5.869c-3.905,3.905-3.904,10.237,0.001,14.142c1.952,1.953,4.511,2.929,7.07,2.929
	s5.119-0.977,7.071-2.93l5.868-5.869c3.905-3.905,3.904-10.237-0.001-14.142C262.632,331.649,256.299,331.65,252.394,335.557z"/>
<path d="M252.394,265.947l-5.868,5.868c-3.905,3.905-3.905,10.237,0,14.143c1.953,1.952,4.512,2.929,7.071,2.929
	c2.559,0,5.118-0.977,7.071-2.929l5.868-5.868c3.905-3.905,3.905-10.237,0-14.143C262.631,262.043,256.301,262.043,252.394,265.947z
	"/>
<path d="M308.607,293.742c-3.906-3.904-10.236-3.904-14.143,0l-5.868,5.868c-3.905,3.905-3.905,10.237,0,14.143
	c1.953,1.952,4.512,2.929,7.071,2.929c2.559,0,5.118-0.977,7.071-2.929l5.868-5.868
	C312.513,303.979,312.513,297.647,308.607,293.742z"/>
<path d="M342.829,245.691c-3.904-3.906-10.237-3.905-14.142,0.001l-5.868,5.869c-3.905,3.905-3.904,10.237,0.001,14.142
	c1.952,1.953,4.511,2.929,7.07,2.929c2.559,0,5.119-0.977,7.071-2.93l5.868-5.869C346.735,255.928,346.734,249.596,342.829,245.691z
	"/>
<path d="M351.664,200.562l-5.869,5.868c-3.905,3.904-3.906,10.236-0.001,14.142c1.952,1.953,4.512,2.93,7.071,2.93
	s5.118-0.977,7.07-2.929l5.869-5.868c3.905-3.904,3.906-10.236,0.001-14.142C361.902,196.658,355.569,196.658,351.664,200.562z"/>
<path d="M257.734,223.508l5.869-5.869c3.905-3.905,3.905-10.237,0-14.143c-3.906-3.904-10.236-3.904-14.143,0l-5.869,5.869
	c-3.905,3.905-3.905,10.237,0,14.143c1.953,1.952,4.512,2.929,7.071,2.929S255.781,225.46,257.734,223.508z"/>
<path d="M348.729,303.096l-5.868,5.869c-3.905,3.905-3.904,10.237,0.001,14.142c1.952,1.953,4.511,2.929,7.07,2.929
	c2.559,0,5.119-0.977,7.071-2.93l5.868-5.869c3.905-3.905,3.904-10.237-0.001-14.142
	C358.966,299.188,352.633,299.189,348.729,303.096z"/>
<path d="M318.419,338.674l-5.869,5.868c-3.905,3.904-3.906,10.236-0.001,14.142c1.952,1.953,4.512,2.93,7.071,2.93
	c2.559,0,5.118-0.977,7.07-2.929l5.869-5.868c3.905-3.904,3.906-10.236,0.001-14.142
	C328.657,334.769,322.324,334.769,318.419,338.674z"/>
<path d="M299.79,241.495l5.869-5.869c3.905-3.905,3.905-10.237,0-14.143c-3.906-3.904-10.236-3.904-14.143,0l-5.869,5.869
	c-3.905,3.905-3.905,10.237,0,14.143c1.953,1.952,4.512,2.929,7.071,2.929C295.277,244.424,297.837,243.447,299.79,241.495z"/>
<g>
</g>
<g>
</g>
<g>
</g>
<g>
</g>
<g>
</g>
<g>
</g>
<g>
</g>
<g>
</g>
<g>
</g>
<g>
</g>
<g>
</g>
<g>
</g>
<g>
</g>
<g>
</g>
<g>
</g>
</svg>
