<?xml version="1.0" encoding="UTF-8" standalone="no"?>
<svg
   xmlns:dc="http://purl.org/dc/elements/1.1/"
   xmlns:cc="http://creativecommons.org/ns#"
   xmlns:rdf="http://www.w3.org/1999/02/22-rdf-syntax-ns#"
   xmlns:svg="http://www.w3.org/2000/svg"
   xmlns="http://www.w3.org/2000/svg"
   xmlns:sodipodi="http://sodipodi.sourceforge.net/DTD/sodipodi-0.dtd"
   xmlns:inkscape="http://www.inkscape.org/namespaces/inkscape"
   inkscape:version="1.0 (4035a4fb49, 2020-05-01)"
   sodipodi:docname="ingredients_outline2.svg"
   version="1.1"
   data-name="Fill out line"
   width="512"
   viewBox="0 0 512 512"
   height="512"
   id="Fill_out_line">
  <metadata
     id="metadata51">
    <rdf:RDF>
      <cc:Work
         rdf:about="">
        <dc:format>image/svg+xml</dc:format>
        <dc:type
           rdf:resource="http://purl.org/dc/dcmitype/StillImage" />
        <dc:title></dc:title>
      </cc:Work>
    </rdf:RDF>
  </metadata>
  <defs
     id="defs49" />
  <sodipodi:namedview
     inkscape:current-layer="g79"
     inkscape:window-maximized="1"
     inkscape:window-y="0"
     inkscape:window-x="1600"
     inkscape:cy="261.13963"
     inkscape:cx="295.88162"
     inkscape:zoom="1.6386719"
     inkscape:guide-bbox="true"
     showguides="true"
     showgrid="false"
     id="namedview47"
     inkscape:window-height="1052"
     inkscape:window-width="1920"
     inkscape:pageshadow="2"
     inkscape:pageopacity="0"
     guidetolerance="10"
     gridtolerance="10"
     objecttolerance="10"
     borderopacity="1"
     bordercolor="#666666"
     pagecolor="#ffffff">
    <sodipodi:guide
       id="guide53"
       orientation="0,-1"
       position="587.91806,256.15349" />
    <sodipodi:guide
       id="guide55"
       orientation="0,-1"
       position="344.79142,265.45888" />
  </sodipodi:namedview>
  <g
     transform="translate(0,-6)"
     id="g79">
    <g
       transform="matrix(1.086065,0,0,1.0721792,-56.57372,-0.49316895)"
       id="g322">
      <path
         id="path2"
         fill="#349b66"
         d="m 224,108 v 48 a 24.00619,24.00619 0 0 1 -24,24 h -48 a 24,24 0 0 1 0,-48 24,24 0 0 1 0,-48 23.9928,23.9928 0 0 1 47.03,-6.72 23.33537,23.33537 0 0 1 0.97,6.72 24.00619,24.00619 0 0 1 24,24 z" />
      <path
         style="image-rendering:auto"
         id="path4"
         fill="#8ccee9"
         d="M 144,180 H 480 V 476 H 144 Z" />
      <path
         id="path6"
         fill="#37a0c5"
         d="m 400,180 h 80 v 296 h -80 z" />
      <path
         id="path8"
         fill="#af7d4d"
         d="M 464,83.21 V 180 H 352 V 83.21 a 71.65079,71.65079 0 0 1 43.39,-65.8101 31.99408,31.99408 0 0 1 25.22,0 A 71.59658,71.59658 0 0 1 464,83.21 Z" />
      <path
         id="path10"
         fill="#f0de9c"
         d="M 400,68 A 15.97833,15.97833 0 0 1 384,84 H 352 V 83.21 A 71.40757,71.40757 0 0 1 359.16992,52 H 384 a 15.99548,15.99548 0 0 1 16,16 z" />
      <path
         id="path12"
         fill="#f0de9c"
         d="m 352,116 h 32 a 16,16 0 0 1 16,16 16,16 0 0 1 -16,16 h -32 z" />
      <path
         id="path14"
         fill="#349b66"
         d="m 280,156 a 24.00619,24.00619 0 0 1 -24,24 h -48 a 24,24 0 0 1 0,-48 24,24 0 0 1 0,-48 24,24 0 0 1 48,0 24.00619,24.00619 0 0 1 24,24 z" />
      <path
         id="path16"
         fill="#e64042"
         d="m 312,292 v 160 a 24,24 0 0 1 -24,24 H 208 A 24,24 0 0 1 184,452 V 292 a 24,24 0 0 1 24,-24 h 16 v -24 h 48 v 24 h 16 a 24,24 0 0 1 24,24 z" />
      <path
         id="path18"
         fill="#f0de9c"
         d="m 208,212 h 80 v 32 h -80 z" />
      <path
         id="path20"
         fill="#f0de9c"
         d="M 184,316 H 312 V 428 H 184 Z" />
      <circle
         id="circle22"
         r="72"
         fill="#ea8804"
         cy="404"
         cx="160" />
      <path
         id="path24"
         fill="#349b66"
         d="M 168,308 H 147.75345 A 32,32 0 0 1 116.07507,280.52548 L 112,252 l 28.52548,4.07507 A 32,32 0 0 1 168,287.75345 Z" />
      <path
         id="path28"
         fill="#f0c033"
         d="m 320,108 h -48 a 96.56846,96.56846 0 0 1 -28.28424,68.2842 L 240,180 h 112 l -3.71576,-3.71576 A 96.56846,96.56846 0 0 1 320,108 Z" />
      <path
         id="path30"
         fill="#f0de9c"
         d="m 264,60 h 64 v 48 h -64 z" />
      <path
         id="path32"
         d="m 480,172 h -8 V 83.21 a 79.51747,79.51747 0 0 0 -48.24,-73.15991 40.20637,40.20637 0 0 0 -31.52,0 A 79.51747,79.51747 0 0 0 344,83.21 v 75.6001 A 87.54442,87.54442 0 0 1 328.36,115.99 l -6.1e-4,-0.008 A 7.99364,7.99364 0 0 0 336,108 V 60 a 8.00008,8.00008 0 0 0 -8,-8 h -64 a 8.00008,8.00008 0 0 0 -8,8 v 2.8501 c -0.43994,-0.51026 -0.9,-1 -1.38,-1.48 A 31.984,31.984 0 0 0 204.01,68.51 32.22031,32.22031 0 0 0 198.62,61.37011 32.00263,32.00263 0 0 0 144.81006,76.81005 31.98816,31.98816 0 0 0 130.86,132 31.96526,31.96526 0 0 0 136,183.7 V 228 h 16 v -40 h 240 v 280 h -64 v 16 h 152 a 7.9979,7.9979 0 0 0 8,-8 V 180 a 7.9979,7.9979 0 0 0 -8,-8 z M 360,124 h 24 a 8,8 0 0 1 0,16 h -24 z m 4.37,-64 H 384 a 8,8 0 1 1 0,16 h -23.6 a 64.01244,64.01244 0 0 1 3.97,-16 z M 272,68 h 48 v 32 H 272 Z M 152,172 a 16,16 0 0 1 0,-32 8,8 0 0 0 0,-16 16,16 0 0 1 0,-32 7.9979,7.9979 0 0 0 8,-8 16.00013,16.00013 0 0 1 31.62,-3.47 31.958,31.958 0 0 0 -4.76,51.47 31.93735,31.93735 0 0 0 -6.55994,40 z m 56,0 a 16,16 0 0 1 0,-32 8,8 0 0 0 0,-16 16,16 0 0 1 0,-32 7.9979,7.9979 0 0 0 8,-8 16,16 0 1 1 32,0 7.9979,7.9979 0 0 0 8,8 v 16 a 7.99364,7.99364 0 0 0 7.64062,7.98193 L 263.64,115.99 A 87.73358,87.73358 0 0 1 240,168.62012 V 84 h -16 v 88 z m 50.14,0 a 103.38584,103.38584 0 0 0 21.54993,-56 h 32.62012 A 103.38584,103.38584 0 0 0 333.86,172 Z M 360,172 v -16 h 24 a 24,24 0 0 0 0,-48 H 360 V 92 h 24 a 24,24 0 0 0 0,-48 h -10.48 a 63.465,63.465 0 0 1 25.03,-19.24 24.04215,24.04215 0 0 1 18.8999,0 A 63.51551,63.51551 0 0 1 456,83.21 V 172 Z M 472,468 H 408 V 188 h 64 z" />
      <path
         id="path42"
         d="m 190.02,329.8501 17.13989,-34.27 -14.31982,-7.16016 -11.03,22.07007 L 176,304.67993 V 287.75 A 40.18506,40.18506 0 0 0 141.65991,248.15991 L 113.13,244.08008 a 7.99356,7.99356 0 0 0 -9.04992,9.0498 l 4.07983,28.53 A 40.18506,40.18506 0 0 0 147.75,316 h 16.92993 l 9.21008,9.21 a 80.07936,80.07936 0 0 0 -67.2301,19.16016 L 117.34009,356.29 A 63.911,63.911 0 0 1 160,340 a 62.44161,62.44161 0 0 1 6.87,0.37012 L 157.8,358.5 a 7.74033,7.74033 0 0 0 -2.22,-1.66016 l -16,-8 -7.16016,14.32007 13.8501,6.92017 A 25.95522,25.95522 0 0 0 175.61,380.75 l 12.80993,6.40991 7.16016,-14.32007 -16,-8 a 8.044,8.044 0 0 0 -7.02,-0.0698 l 10.28,-20.55 A 64.00695,64.00695 0 0 1 138.66992,464.35991 L 133.33008,479.45 A 80.01072,80.01072 0 0 0 190.02,329.8501 Z M 160,288.68994 144.4,273.08984 133.09009,284.3999 148.68994,300 H 147.75 A 24.12661,24.12661 0 0 1 123.99,279.39014 L 121.42994,261.42993 139.39,264 A 24.10891,24.10891 0 0 1 160,287.75 Z" />
      <path
         id="path44"
         d="m 288,260 h -8 v -8 h 8 a 7.9979,7.9979 0 0 0 8,-8 v -32 a 7.9979,7.9979 0 0 0 -8,-8 h -80 a 7.9979,7.9979 0 0 0 -8,8 v 32 a 7.9979,7.9979 0 0 0 8,8 h 8 v 8 h -8 a 32.0512,32.0512 0 0 0 -23.85,10.66992 l 11.92,10.66016 A 16.0305,16.0305 0 0 1 208,276 h 16 a 7.9979,7.9979 0 0 0 8,-8 v -16 h 32 v 8 h -16 v 16 h 40 a 16.02116,16.02116 0 0 1 16,16 v 16 h -88 v 16 h 88 v 96 h -48 v 16 h 48 v 16 a 16.02116,16.02116 0 0 1 -16,16 h -64 v 16 h 64 a 32.036,32.036 0 0 0 32,-32 V 292 a 32.036,32.036 0 0 0 -32,-32 z m -72,-24 v -16 h 64 v 16 z" />
    </g>
  </g>
</svg>
