<svg height="512" viewBox="0 -30 512 512" width="512" xmlns="http://www.w3.org/2000/svg"><path d="m31.953125 414.574219c0 14.910156 12.085937 27 27 27h394.09375c14.910156 0 27-12.089844 27-27v-35.8125h-448.09375zm0 0" fill="#91def5"/><path d="m485.734375 342.890625-20.273437-5.667969c-2.589844 5.597656-7.148438 9.988282-12.726563 12.398438l4.09375 20.160156c1.125 5.539062 6.199219 9.375 11.839844 8.949219 12.8125-.972657 23.246093-10.679688 25.140625-23.386719.832031-5.59375-2.628906-10.929688-8.074219-12.453125zm0 0" fill="#d4498f"/><path d="m427.992188 155.324219 16.382812-13.21875c4.398438-3.550781 5.46875-9.820313 2.496094-14.628907-12.203125-19.714843-43.203125-15.539062-39.675782 1.351563l4.207032 20.136719c6.066406.007812 11.992187 2.238281 16.589844 6.359375zm0 0" fill="#d4498f"/><path d="m465.460938 337.222656c7.714843-16.683594-5.75-28.847656-5.941407-29.238281-29.492187-33.613281-39.242187-80.917969-25.429687-123.453125.011718-.324219 7.507812-16.992188-6.097656-29.207031-13.339844-11.96875-34.738282-6.289063-40.304688 10.855469-.492188 1.996093-9.257812 24.476562-9.585938 55.886718 21.242188 27.566406 32.539063 58.804688 24.925782 92.488282 9.769531 16.425781 20.25 27.546874 21.121094 28.625 11.886718 13.546874 33.789062 10.316406 41.3125-5.957032zm0 0" fill="#ff6977"/><path d="m267.285156 108.492188c2.921875-1.035157 5.925782-1.429688 8.863282-1.277344l-17.566407-49.609375c-.78125-2.203125 1.644531-3.160157 1.539063-3.0625 12.742187-4.511719 19-19.15625 12.925781-31.675781-4.566406-9.417969-15.246094-14.582032-25.460937-12.304688-5.816407 1.300781-10.523438 4.601562-13.664063 8.953125-3.117187 4.320313-8.484375 6.21875-13.625 4.824219-16.691406-4.527344-32.195313 10.519531-28.300781 27.226562 3.160156 13.554688 17.234375 20.996094 29.980468 16.484375.007813-.003906.015626-.007812.023438-.007812 1.261719-.449219 2.652344.160156 3.097656 1.421875l17.566406 49.609375c5.484376-4.933594 9.9375-4.945313 24.621094-10.582031zm0 0" fill="#cff1fb"/><path d="m378.101562 222.066406c-8.761718-11.371094-19.15625-21.867187-30.308593-30.316406-25.660157-19.4375-38.769531-42.015625-52.019531-71.21875-4.972657-10.960938-17.527344-15.917969-28.488282-12.039062-14.722656 5.652343-19.148437 5.652343-24.621094 10.578124-6.171874 5.554688-9.082031 14.222657-6.875 22.699219 6.632813 25.484375 10.261719 45.777344 7.609376 69.835938 4.65625 7.316406 8.617187 15.660156 11.679687 25.101562 9.609375 29.636719 4.429687 58.390625-10.8125 82.183594 17.890625 45.695313 65.398437 70.472656 107.648437 55.511719 26.613282-9.421875 44.914063-32.425782 51.113282-59.847656 7.609375-33.679688-3.679688-64.914063-24.925782-92.488282zm0 0" fill="#ffcb7c"/><path d="m255.078125 236.710938c-32.167969-99.179688-163.070313-77.984376-165.871094-3.839844-2.644531 70.058594-41.902343 27.351562-64.761719 50.601562-38.085937 38.738282 27.539063 96.21875 102.453126 95.277344 84.996093-1.0625 152.019531-68.527344 128.179687-142.039062zm-97.992187 103.175781c-31.457032 4.648437-60.707032-5.042969-64.238282-26.980469-1.484375-9.234375 2.769532-18.367188 10.320313-23.882812 17.722656-12.941407 21.085937-29.453126 20.746093-41.15625-.550781-18.804688 10.609376-36.179688 28.375-42.371094 26.378907-9.1875 59.003907 2.609375 71.53125 38.992187 14.964844 43.449219-18.996093 87.46875-66.734374 95.398438zm0 0" fill="#ff6977"/><path d="m152.292969 205.496094c-17.769531 6.191406-28.925781 23.566406-28.378907 42.371094.34375 11.703124-3.023437 28.210937-20.742187 41.15625-7.550781 5.515624-11.808594 14.648437-10.324219 23.882812 3.53125 21.933594 32.78125 31.628906 64.242188 26.980469 47.738281-7.929688 81.695312-51.953125 66.730468-95.402344-12.527343-36.378906-45.152343-48.179687-71.527343-38.988281zm31.847656 61.257812c-6.722656 6.839844-17.714844 6.933594-24.554687.210938-6.839844-6.726563-6.933594-17.71875-.210938-24.558594s17.71875-6.933594 24.558594-.210938c6.839844 6.726563 6.933594 17.71875.207031 24.558594zm0 0" fill="#eba9af"/><path d="m183.921875 242.183594c-6.839844-6.722656-17.835937-6.625-24.558594.210937-6.722656 6.839844-6.628906 17.832031.210938 24.558594 6.839843 6.722656 17.832031 6.625 24.554687-.210937 6.722656-6.839844 6.628906-17.832032-.207031-24.558594zm0 0" fill="#cff1fb"/><path d="m501.925781 368.691406h-1.984375c9.058594-17.492187 1.441406-31.886718-11.492187-35.503906l-10.800781-3.019531c.90625-9.289063-1.863282-18.917969-8.492188-26.472657-.171875-.351562-47.699219-47.640624-25.484375-116.054687.148437-1.199219 6.957031-14.945313-1.699219-30.652344l8.730469-7.042969c22.625-18.261718-6.8125-54.746093-39.441406-43.546874-10.128907 3.476562-16.117188 14.007812-13.925781 24.492187l2.113281 10.121094c-18.433594 6.714843-21.882813 24.300781-22.308594 25.03125-3.339844 10.289062-5.769531 20.84375-7.277344 31.558593-23.289062-22.953124-38.554687-23.125-64.914062-81.234374-4.132813-9.105469-12.113281-15.492188-21.257813-18.027344l-13.339844-37.679688c14.046876-9.070312 19.0625-27.136718 11.761719-42.191406-10.695312-22.050781-41.667969-25.207031-56.359375-4.847656-.667968.921875-1.71875 1.292968-2.820312.996094-24.238282-6.578126-46.3125 15.382812-40.75 39.234374 3.785156 16.230469 18.988281 27.175782 35.691406 25.390626l13.339844 37.679687c-5.507813 7.722656-7.695313 17.707031-5.175782 27.382813 3.164063 12.148437 6.734376 27.957031 7.726563 40.457031-56.109375-50.207031-152.035156-20.882813-154.621094 47.730469-.757812 20.015624-4.582031 27.609374-7.65625 30.457031-8.894531 8.230469-35.050781-6.042969-54.226562 13.457031-30.527344 31.050781-8.125 70.332031 30.582031 92.28125-13.574219 0-24.449219 0-37.769531 0-5.5625 0-10.074219 4.511719-10.074219 10.074219s4.511719 10.074219 10.074219 10.074219h11.804687v25.738281c0 20.441406 16.628906 37.074219 37.074219 37.074219h394.09375c20.441406 0 37.074219-16.632813 37.074219-37.074219v-25.738281h11.804687c5.5625 0 10.074219-4.511719 10.074219-10.074219s-4.511719-10.070313-10.074219-10.070313zm-84.125-243.234375c7.757813-2.660156 16.1875.347657 20.5 7.320313.988281 1.59375-1.542969 2.070312-10.839843 10.03125-1.609376-.832032-3.734376-1.699219-5.292969-2.207032h-.003907c-.101562-.027343-1.167968-.378906-2.359374-.675781-2.167969-12.164062-3.738282-13.871093-2.003907-14.46875zm-20.53125 43.832031c3.265625-10.0625 15.867188-13.625 23.898438-6.542968 8.746093 7.730468 3.390625 17.84375 3.339843 18.671875-14.902343 45.894531-4.386718 96.9375 27.4375 133.210937l2.066407 2.351563c6.515625 7.429687 4.085937 19.230469-5.175781 23.347656-5.761719 2.53125-12.746094 1.183594-17.117188-3.792969-1.761719-2.15625-8.945312-9.332031-18.019531-23.828125 3.4375-18.59375 1.679687-38.074219-4.628907-55.757812-4.714843-13.316407-12.269531-26.585938-20.828124-38.167969.84375-27.75 8.523437-47.515625 9.027343-49.492188zm49.058594 199.402344h-64.433594c10.039063-8.410156 18.242188-19.140625 24.085938-31.714844 11.058593 14.648438 20.511719 25.730469 38.917969 24.675782zm-175.679687-250.703125c6.1875-2.1875 13.226562.699219 15.953124 6.703125 13.90625 30.660156 28.101563 54.628906 55.109376 75.089844 10.097656 7.648438 19.667968 17.09375 28.410156 28.433594 64.722656 84.015625-8.242188 167.574218-76.535156 132.230468-16.601563-8.585937-29.964844-22.9375-38.039063-40.722656 20.644531-35.921875 18.207031-76.6875-1.789063-110.496094 2.171876-24.863281-1.847656-45.515624-8.21875-69.992187-1.226562-4.714844.445313-9.621094 3.949219-12.742187 3.101563-2.75 6.117188-3.15625 21.160157-8.503907zm-1.445313 250.703125h-64.71875c14.710937-8.175781 27.605469-18.566406 37.953125-30.574218 6.980469 11.953124 16.0625 22.335937 26.765625 30.574218zm-50.574219-310.144531c-3.0625 1.171875-7.089844 1.011719-10.46875-.835937-3.246094-1.777344-5.5-4.769532-6.355468-8.433594-2.164063-9.273438 6.472656-17.75 15.851562-15.214844 9.238281 2.507812 18.828125-.886719 24.433594-8.648438 5.660156-7.851562 17.722656-6.753906 21.894531 1.847657 3.171875 6.542969.59375 14.789062-7.242187 17.792969-6.617188 2.335937-9.921876 9.511718-7.65625 15.917968l13.617187 38.457032c-5.066406 1.792968-9.425781 3.339843-14.492187 5.132812l-13.617188-38.460938c-2.265625-6.402343-9.351562-9.902343-15.964844-7.554687zm-187 231.988281c15.589844-15.851562 64.730469 20.0625 67.644532-57.285156 1.179687-31.253906 28.871093-49.015625 55.792968-52.75 76.1875-10.570312 120.464844 77.796875 77.796875 137.269531-23.402343 32.617188-65.871093 50.921875-107.835937 50.921875-63.554688 0-123.863282-47.171875-93.398438-78.15625zm438.347656 124.039063c0 9.335937-7.59375 16.929687-16.929687 16.929687h-394.09375c-9.335937 0-16.929687-7.59375-16.929687-16.929687v-25.738281h427.949218v25.738281zm-2.070312-45.886719c-1.84375.132812-1.078125-2.160156-3.878906-14.082031 2.230468-1.703125 4.347656-3.796875 5.894531-5.675781 12.027344 3.746093 14.191406 3.121093 13.921875 4.929687-1.207031 8.109375-7.761719 14.207031-15.9375 14.828125zm0 0"/><path d="m341.0625 254.925781c.277344.25 27.46875 25.230469 9.902344 60.429688-2.484375 4.976562-.460938 11.027343 4.515625 13.511719 4.980469 2.484374 11.027343.460937 13.511719-4.515626 12.703124-25.457031 8.125-47.082031 2.042968-60.738281-6.496094-14.59375-16.113281-23.320312-16.519531-23.683593-4.140625-3.714844-10.511719-3.371094-14.226563.773437-3.714843 4.140625-3.367187 10.511719.773438 14.222656zm0 0"/><path d="m340.203125 354.542969c5.171875 0 9.570313-3.960938 10.023437-9.207031l.003907-.03125c.476562-5.539063-3.628907-10.40625-9.171875-10.886719-5.542969-.460938-10.425782 3.644531-10.902344 9.1875-.507812 5.875 4.121094 10.9375 10.046875 10.9375zm0 0"/><path d="m226.296875 305.074219c24.714844-41.484375 5.019531-89.890625-28.734375-106.273438-38.699219-18.789062-85.007812 5.125-83.714844 49.359375.390625 13.378906-5.203125 24.390625-16.617187 32.726563-28.679688 20.949219-16.601563 70.230469 44.546875 70.230469 37.40625 0 68.804687-19.667969 84.519531-46.042969zm-123.503906 6.230469c-.847657-5.261719 1.574219-10.679688 6.320312-14.148438 21.296875-15.554688 25.28125-35.550781 24.871094-49.582031-1.21875-41.753907 62.480469-51.589844 80.3125.191406 5.359375 15.5625 3.472656 32.253906-5.308594 46.996094-28.46875 47.785156-101.96875 42.816406-106.195312 16.542969zm0 0"/><path d="m171.992188 282.019531c15.164062-.132812 27.332031-12.507812 27.203124-27.671875-.207031-24.289062-29.882812-36.417968-47.003906-19.003906-17.1875 17.480469-4.328125 46.96875 19.800782 46.675781zm-.230469-34.730469c3.996093 0 7.253906 3.21875 7.289062 7.230469.054688 6.511719-7.808593 9.773438-12.402343 5.261719-4.628907-4.550781-1.390626-12.492188 5.113281-12.492188zm0 0"/></svg>