<svg id="_x33_0" enable-background="new 0 0 64 64" height="512" viewBox="0 0 64 64" width="512" xmlns="http://www.w3.org/2000/svg"><g><g><g><path d="m54 29v3h-8v-3c0-.55.45-1 1-1h3 3c.55 0 1 .45 1 1z" fill="#ef7385"/></g><g><path d="m36 28h6v4h-6z" fill="#ef7385"/></g><g><path d="m54 32v4h-8.07-.01c.06-.32.08-.66.08-1v-3z" fill="#e6e9ed"/></g><g><path d="m42 32v3c0 .83-.34 1.58-.88 2.12s-1.29.88-2.12.88c-1.66 0-3-1.34-3-3v-3z" fill="#e6e9ed"/></g><g><path d="m40 58v3c0 .55-.45 1-1 1h-22c-.55 0-1-.45-1-1v-3z" fill="#ef7385"/></g><g><path d="m4 48h48c-2.36 4.76-6.64 8.47-12 10h-24c-5.36-1.53-9.64-5.24-12-10z" fill="#ef7385"/></g><g><path d="m32 28v4h-30v-3c0-.55.45-1 1-1h13 4 4 4z" fill="#ef7385"/></g><g><path d="m32 35c0 .34.02.67.08 1h-.01-2.07v8h10v-2.07-.01c1.56-.21 2.95-.95 4-2.02v4.1h9.45c-.33 1.39-.82 2.73-1.45 4h-48c-.63-1.27-1.12-2.61-1.45-4h9.45v-8h-10v-4h30zm-6 9v-8h-10v8z" fill="#e6e9ed"/></g><g><path d="m54 39.44c0 1.56-.19 3.09-.55 4.56h-9.45v-4.1c1.02-1.03 1.71-2.39 1.92-3.9h.01 8.07z" fill="#ef7385"/></g><g><path d="m40 44h-10v-8h2.07.01c.21 1.54.92 2.9 1.97 3.95 1.27 1.27 3.01 2.05 4.95 2.05.34 0 .68-.02 1-.08v.01z" fill="#ef7385"/></g><g><path d="m16 36h10v8h-10z" fill="#ef7385"/></g><g><path d="m12 36v8h-9.45c-.36-1.47-.55-3-.55-4.56v-3.44z" fill="#ef7385"/></g><g><path d="m62 5v2c0 .55-.45 1-1 1h-2-23v-4h25c.55 0 1 .45 1 1z" fill="#cf9e76"/></g><g><path d="m60 9v2c0 .55-.45 1-1 1h-23v-4h23c.55 0 1 .45 1 1z" fill="#cf9e76"/></g><g><path d="m24 4v4h-4-4-2v-3c0-.55.45-1 1-1z" fill="#cf9e76"/></g><g><path d="m16 8v4h-3c-.55 0-1-.45-1-1v-2c0-.55.45-1 1-1h1z" fill="#cf9e76"/></g><g><path d="m32 4v24h-4v-24c0-1.1.9-2 2-2 .55 0 1.05.22 1.41.59.37.36.59.86.59 1.41z" fill="#ffeaa7"/></g><g><path d="m20 8h4v20h-4z" fill="#ffeaa7"/></g><g><path d="m35.41 2.59c.37.36.59.86.59 1.41v4 4 16 4 3c0 1.66 1.34 3 3 3 .83 0 1.58-.34 2.12-.88s.88-1.29.88-2.12v-3-4c0-2.21 1.79-4 4-4 1.1 0 2.1.45 2.83 1.17.72.73 1.17 1.73 1.17 2.83h-3c-.55 0-1 .45-1 1v3 3c0 .34-.02.68-.08 1-.21 1.51-.9 2.87-1.92 3.9-1.05 1.07-2.44 1.81-4 2.02-.32.06-.66.08-1 .08-1.94 0-3.68-.78-4.95-2.05-1.05-1.05-1.76-2.41-1.97-3.95-.06-.33-.08-.66-.08-1v-3-4-24c0-1.1.9-2 2-2 .55 0 1.05.22 1.41.59z" fill="#fcd770"/></g><g><path d="m28 4v24h-4v-20-4c0-1.1.9-2 2-2 .55 0 1.05.22 1.41.59.37.36.59.86.59 1.41z" fill="#fcd770"/></g><g><path d="m20 8v20h-4v-16-4z" fill="#fcd770"/></g></g><g><path d="m47 39h4v2h-4z"/><path d="m19 39h4v2h-4z"/><path d="m15 45h12v-10h-12zm2-8h8v6h-8z"/><path d="m5 39h4v2h-4z"/><path d="m61 3h-24.184c-.414-1.161-1.514-2-2.816-2-.771 0-1.468.301-2 .78-.532-.479-1.229-.78-2-.78s-1.468.301-2 .78c-.532-.479-1.229-.78-2-.78-1.302 0-2.402.839-2.816 2h-8.184c-1.103 0-2 .897-2 2v2c-1.103 0-2 .897-2 2v2c0 1.103.897 2 2 2h2v14h-12c-1.103 0-2 .897-2 2v10.439c0 8.761 5.724 16.573 14 19.282v2.279c0 1.103.897 2 2 2h22c1.103 0 2-.897 2-2v-2.279c8.276-2.709 14-10.521 14-19.282v-10.439c0-1.103-.897-2-2-2h-2.101c-.465-2.279-2.484-4-4.899-4-2.414 0-4.434 1.721-4.899 4h-4.101v-14h22c1.103 0 2-.897 2-2v-2c1.103 0 2-.897 2-2v-2c0-1.103-.897-2-2-2zm-24 30h4v2c0 1.103-.897 2-2 2s-2-.897-2-2zm10 0h6v2h-6zm-.263 4h6.263v2.439c0 1.213-.135 2.401-.368 3.561h-7.632v-2.726c.816-.928 1.418-2.043 1.737-3.274zm5.378 8c-.22.684-.48 1.351-.777 2h-46.676c-.297-.649-.557-1.316-.777-2h9.115v-10h-10v-2h28v2h-2v10h12v-2.263c.71-.184 1.381-.46 2-.819v3.082zm-49.115-5.561v-2.439h8v6h-7.632c-.233-1.159-.368-2.348-.368-3.561zm28 3.561v-6h.263c.892 3.445 4.017 6 7.737 6zm-1-40c.552 0 1 .449 1 1v23h-2v-23c0-.551.448-1 1-1zm-4 0c.552 0 1 .449 1 1v23h-2v-23c0-.551.448-1 1-1zm-3 6v18h-2v-18zm-8-4h8v2h-8zm-2 6v-2h2v2zm4-2h2v18h-2zm14 20v2h-28v-2zm8 32-22 .002v-2.002h22zm.841-4h-23.682c-4.442-1.301-8.107-4.222-10.432-8h44.545c-2.325 3.778-5.99 6.699-10.431 8zm13.159-28v2h-6v-2zm-10 6v-7c0-1.654 1.346-3 3-3 1.304 0 2.416.836 2.829 2h-1.829c-1.103 0-2 .897-2 2v6c0 3.309-2.691 6-6 6s-6-2.691-6-6v-31c0-.551.448-1 1-1s1 .449 1 1v31c0 2.206 1.794 4 4 4s4-1.794 4-4zm-2-6v2h-4v-2zm18-18h-22v-2h22zm2-4h-24v-2h24z"/></g></g></svg>