<?xml version="1.0" encoding="iso-8859-1"?>
<!-- Generator: Adobe Illustrator 19.0.0, SVG Export Plug-In . SVG Version: 6.00 Build 0)  -->
<svg version="1.1" id="Capa_1" xmlns="http://www.w3.org/2000/svg" xmlns:xlink="http://www.w3.org/1999/xlink" x="0px" y="0px"
	 viewBox="0 0 512.002 512.002" style="enable-background:new 0 0 512.002 512.002;" xml:space="preserve">
<path style="fill:#E53844;" d="M403.151,464.994l-42.412-42.412l27.939-27.939H366.69c-78.032,0-141.515-63.483-141.515-141.515
	c0-44.959-36.577-81.536-81.536-81.536h-1.187v-59.98h1.188c78.032,0,141.515,63.483,141.515,141.515
	c0,44.959,36.577,81.536,81.536,81.536h17.8l-23.834-23.834l42.412-42.412l98.33,98.33L403.151,464.994z"/>
<g>
	<path style="fill:#EA6069;" d="M225.174,253.128c0-44.959-36.577-81.536-81.536-81.536h-1.187v-59.98h1.188
		c78.032,0,141.515,63.483,141.515,141.515"/>
	<rect x="37.487" y="340.407" style="fill:#EA6069;" width="76.849" height="59.98"/>
</g>
<rect x="37.487" y="340.407" style="fill:#E53844;" width="37.487" height="59.98"/>
<path style="fill:#F2A0A5;" d="M285.154,258.875c0-44.959,36.577-81.536,81.536-81.536h17.8l-23.834,23.834l42.412,42.412
	l98.33-98.33l-98.247-98.247l-42.413,42.413l27.939,27.939h-21.988c-43.861,0-82.515,19.122-108.494,50.546"/>
<g>
	<path style="fill:#EA6069;" d="M225.174,258.875c0,1.236-0.028,2.465-0.082,3.687c-1.934,43.254-37.729,77.848-81.453,77.848
		h-1.188v59.98h1.188c46.479,0,87.798-22.523,113.612-57.23"/>
	<rect x="36.521" y="111.614" style="fill:#EA6069;" width="76.849" height="59.98"/>
</g>
<rect x="36.521" y="111.614" style="fill:#F2A0A5;" width="37.487" height="59.98"/>
<path d="M121.834,407.887H29.99v-74.975h91.844V407.887z M44.985,392.892h61.854v-44.985H44.985V392.892z"/>
<rect y="332.909" width="14.995" height="74.975"/>
<path d="M121.834,179.09H29.99v-74.975h91.844V179.09z M44.985,164.095h61.854V119.11H44.985V164.095z"/>
<path d="M350.052,310.829l16.336,16.336c-39.725-0.158-72.151-31.766-73.664-71.164c1.513-39.397,33.94-71.006,73.664-71.164
	l-16.336,16.337l53.014,53.015L512,145.256L403.151,36.406l-53.016,53.015l20.441,20.441h-3.888
	c-41.555,0-80.788,17.207-108.986,47.494c-27.356-32.529-68.333-53.241-114.063-53.241h-8.684v74.975h8.685
	c40.824,0,74.038,33.213,74.038,74.038c0,1.925,0.049,3.84,0.122,5.747h-0.122c0,1.112-0.025,2.239-0.075,3.352
	c-1.772,39.637-34.26,70.685-73.962,70.685h-8.686v74.975h8.685c23.595,0,47.104-5.682,67.987-16.432
	c17.549-9.034,33.331-21.666,46.086-36.815c27.221,29.203,66,47.499,108.977,47.499h3.888l-20.441,20.441l53.015,53.015
	l108.85-108.849L403.068,257.814L350.052,310.829z M366.689,124.857h40.089L371.34,89.421l31.809-31.809l87.645,87.644
	l-87.728,87.727l-31.808-31.809l31.331-31.331h-35.901c-33.926,0-63.476,19.076-78.5,47.061
	c-4.303-17.164-11.586-33.158-21.273-47.393C292.397,141.071,328.452,124.857,366.689,124.857z M204.763,378.123
	c-17.168,8.838-35.578,13.746-54.814,14.625v-45.063c20.705-1.454,40.136-10.05,55.275-24.569
	c7.995-7.667,14.373-16.605,18.974-26.357c5.175,16.867,13.27,32.467,23.691,46.213
	C236.132,357.503,221.325,369.598,204.763,378.123z M403.151,454.39l-31.809-31.809l35.436-35.436h-40.089
	c-73.897,0-134.017-60.12-134.017-134.018c0-46.971-36.563-85.563-82.722-88.811v-45.059
	c70.978,3.307,127.707,62.089,127.707,133.871c0,0.962,0.021,1.919,0.051,2.874c-0.031,0.955-0.051,1.911-0.051,2.874h0.191
	c2.973,46.424,41.68,83.285,88.842,83.285h35.901l-31.331-31.331l31.808-31.809l87.728,87.727L403.151,454.39z"/>
<rect y="104.116" width="14.995" height="74.975"/>
<g>
	<rect x="426.387" y="138.854" style="fill:#FFFFFF;" width="14.995" height="14.995"/>
	<rect x="426.387" y="356.281" style="fill:#FFFFFF;" width="14.995" height="14.995"/>
</g>
<g>
</g>
<g>
</g>
<g>
</g>
<g>
</g>
<g>
</g>
<g>
</g>
<g>
</g>
<g>
</g>
<g>
</g>
<g>
</g>
<g>
</g>
<g>
</g>
<g>
</g>
<g>
</g>
<g>
</g>
</svg>
