<?xml version="1.0" encoding="iso-8859-1"?>
<!-- Generator: Adobe Illustrator 21.0.0, SVG Export Plug-In . SVG Version: 6.00 Build 0)  -->
<svg xmlns="http://www.w3.org/2000/svg" xmlns:xlink="http://www.w3.org/1999/xlink" version="1.1" id="Capa_1" x="0px" y="0px" viewBox="0 0 512 512" style="enable-background:new 0 0 512 512;" xml:space="preserve" width="512" height="512">
<g>
	<circle style="fill:#F5F5F5;" cx="256" cy="256" r="248.5"/>
	<path style="fill:#E6E6E6;" d="M256,7.5c-5.038,0-10.036,0.168-15,0.463C371.256,15.721,474.5,123.795,474.5,256   S371.256,496.279,241,504.037c4.964,0.295,9.962,0.463,15,0.463c137.243,0,248.5-111.257,248.5-248.5S393.243,7.5,256,7.5z"/>
	<path style="fill:#B05A21;" d="M256,474.5c-58.363,0-113.234-22.728-154.503-63.997C60.228,369.234,37.5,314.363,37.5,256   s22.728-113.234,63.997-154.503C142.766,60.228,197.637,37.5,256,37.5s113.234,22.728,154.503,63.997   C451.772,142.766,474.5,197.637,474.5,256s-22.728,113.234-63.997,154.503C369.234,451.772,314.363,474.5,256,474.5z"/>
	<path style="fill:#964E1D;" d="M410.503,101.497C369.234,60.228,314.363,37.5,256,37.5c-5.029,0-10.03,0.181-15,0.516   c52.716,3.551,101.79,25.768,139.503,63.481C421.772,142.766,444.5,197.637,444.5,256s-22.728,113.234-63.997,154.503   C342.79,448.216,293.716,470.434,241,473.984c4.97,0.335,9.971,0.516,15,0.516c58.363,0,113.234-22.728,154.503-63.997   C451.772,369.234,474.5,314.363,474.5,256S451.772,142.766,410.503,101.497z"/>
	<path style="fill:#FFD54F;" d="M393.461,240.642l-55.445-29.697c-2.459-1.317-3.385-4.379-2.068-6.838l28.753-53.682   c1.317-2.459,4.379-3.385,6.838-2.068l1.763,0.944c32.107,17.197,44.194,57.165,26.997,89.273l0,0   C398.982,241.034,395.921,241.96,393.461,240.642z"/>
	<path style="fill:#FFCA28;" d="M373.302,149.302l-1.763-0.944c-2.459-1.317-5.521-0.391-6.838,2.068l-5.674,10.593   c17.782,17.94,23.976,44.978,15.009,69.22l19.425,10.404c2.459,1.317,5.521,0.391,6.838-2.068l0,0   C417.496,206.467,405.409,166.499,373.302,149.302z"/>
	<path style="fill:#FFD54F;" d="M91.494,236.488l61.058,15.101c2.708,0.67,4.361,3.408,3.691,6.116l-14.621,59.116   c-0.67,2.708-3.408,4.361-6.116,3.691l-1.942-0.48c-35.357-8.745-56.931-44.496-48.186-79.853l0,0   C86.048,237.47,88.786,235.818,91.494,236.488z"/>
	<path style="fill:#FFCA28;" d="M152.552,251.589l-23.367-5.779l-16.135,65.237c6.112,4.037,12.997,7.126,20.514,8.985l1.942,0.48   c2.708,0.67,5.446-0.983,6.116-3.691l14.621-59.116C156.913,254.997,155.26,252.259,152.552,251.589z"/>
	<path style="fill:#FFD54F;" d="M271.791,386.032l-62.225,9.176c-2.76,0.407-5.327-1.5-5.734-4.26l-8.884-60.246   c-0.407-2.76,1.5-5.327,4.26-5.734l1.979-0.292c36.033-5.314,69.551,19.589,74.864,55.622v0   C276.459,383.058,274.551,385.625,271.791,386.032z"/>
	<path style="fill:#FFCA28;" d="M276.052,380.298L276.052,380.298c-5.314-36.033-38.832-60.936-74.865-55.622l-1.979,0.292   c-1.119,0.165-2.085,0.697-2.827,1.441c25.51,6.676,45.851,27.993,49.941,55.727l1.104,7.489l24.364-3.593   C274.551,385.625,276.459,383.058,276.052,380.298z"/>
	<circle style="fill:#FF9800;" cx="145" cy="158" r="28"/>
	<path style="fill:#FB8C00;" d="M145,130c-5.52,0-10.663,1.604-15,4.362c7.812,4.968,13,13.694,13,23.638   c0,9.943-5.188,18.67-13,23.638c4.337,2.758,9.48,4.362,15,4.362c15.464,0,28-12.536,28-28S160.464,130,145,130z"/>
	<circle style="fill:#FF9800;" cx="344" cy="293" r="28"/>
	<path style="fill:#FB8C00;" d="M344,265c-5.52,0-10.663,1.604-15,4.362c7.812,4.968,13,13.694,13,23.638   c0,9.943-5.188,18.67-13,23.638c4.337,2.758,9.48,4.362,15,4.362c15.464,0,28-12.536,28-28S359.464,265,344,265z"/>
	<circle style="fill:#FF9800;" cx="333" cy="385" r="28"/>
	<path style="fill:#FB8C00;" d="M333,357c-5.52,0-10.663,1.604-15,4.362c7.812,4.968,13,13.694,13,23.638   c0,9.943-5.188,18.67-13,23.638c4.337,2.758,9.48,4.362,15,4.362c15.464,0,28-12.536,28-28S348.464,357,333,357z"/>
	<circle style="fill:#FF9800;" cx="242" cy="223" r="28"/>
	<path style="fill:#FB8C00;" d="M242,195c-5.52,0-10.663,1.604-15,4.362c7.812,4.968,13,13.694,13,23.638   c0,9.943-5.188,18.67-13,23.638c4.337,2.758,9.48,4.362,15,4.362c15.464,0,28-12.536,28-28S257.464,195,242,195z"/>
	<circle style="fill:#FF9800;" cx="288" cy="115" r="28"/>
	<path style="fill:#FB8C00;" d="M288,87c-5.52,0-10.663,1.604-15,4.362c7.812,4.968,13,13.694,13,23.638   c0,9.943-5.188,18.67-13,23.638c4.337,2.758,9.48,4.362,15,4.362c15.464,0,28-12.536,28-28S303.464,87,288,87z"/>
	<path d="M415.023,55.37c-3.245-2.574-7.963-2.034-10.537,1.213c-2.574,3.244-2.032,7.962,1.213,10.537   C463.722,113.17,497,182.015,497,256c0,64.374-25.068,124.895-70.587,170.413S320.374,497,256,497s-124.895-25.068-170.413-70.587   S15,320.374,15,256S40.068,131.105,85.587,85.587S191.626,15,256,15c44.076,0,87.19,12.005,124.683,34.717   c3.541,2.143,8.154,1.014,10.301-2.529c2.146-3.543,1.014-8.154-2.529-10.301C348.618,12.755,302.816,0,256,0   C187.62,0,123.332,26.629,74.98,74.98S0,187.62,0,256s26.629,132.668,74.98,181.02S187.62,512,256,512s132.668-26.629,181.02-74.98   S512,324.38,512,256C512,177.41,476.653,104.283,415.023,55.37z"/>
	<path d="M55.397,168.768c-3.851-1.519-8.209,0.372-9.729,4.225C35.271,199.354,30,227.282,30,256   c0,60.368,23.508,117.121,66.193,159.806C138.879,458.492,195.632,482,256,482s117.121-23.508,159.806-66.193   C458.492,373.121,482,316.368,482,256s-23.508-117.121-66.193-159.806C373.121,53.508,316.368,30,256,30   S138.879,53.508,96.193,96.193c-14.108,14.109-26.265,29.919-36.129,46.988c-2.073,3.587-0.846,8.174,2.74,10.246   c3.586,2.074,8.173,0.846,10.246-2.74c9.211-15.938,20.565-30.703,33.75-43.888C146.652,66.948,199.639,45,256,45   s109.348,21.948,149.2,61.801C445.052,146.652,467,199.639,467,256s-21.948,109.348-61.801,149.2   C365.348,445.052,312.361,467,256,467s-109.348-21.948-149.2-61.801C66.948,365.348,45,312.361,45,256   c0-26.825,4.92-52.902,14.622-77.504C61.143,174.643,59.25,170.287,55.397,168.768z"/>
	<path d="M308.5,293c0,19.575,15.925,35.5,35.5,35.5s35.5-15.925,35.5-35.5s-15.925-35.5-35.5-35.5S308.5,273.425,308.5,293z    M344,272.5c11.304,0,20.5,9.196,20.5,20.5s-9.196,20.5-20.5,20.5s-20.5-9.196-20.5-20.5S332.696,272.5,344,272.5z"/>
	<path d="M334.475,217.557l55.445,29.697c6.166,3.301,13.742,0.931,16.99-5.139c9.264-17.294,11.237-37.16,5.559-55.939   c-5.68-18.778-18.331-34.222-35.625-43.485c-0.879-0.31-5.152-3.757-11.324-1.895c-3.21,0.972-5.849,3.135-7.43,6.089   l-28.753,53.682C326.069,206.667,328.374,214.288,334.475,217.557z M370.155,156.127c13.561,7.394,23.479,19.591,27.955,34.391   c4.282,14.16,3.097,29.096-3.312,42.334l-51.083-27.361L370.155,156.127z"/>
	<path d="M78.098,238.378c-9.724,39.315,14.352,79.211,53.669,88.936c0.101-0.013,13.888,4.446,17.136-8.691l14.622-59.118   c1.659-6.718-2.455-13.534-9.172-15.195l-61.058-15.101C86.561,227.543,79.763,231.642,78.098,238.378z M134.93,312.643   c-30.235-7.721-48.996-37.922-42.81-68.273l56.255,13.912L134.93,312.643z"/>
	<path d="M189.87,322.479c-1.999,2.691-2.831,6.001-2.342,9.316l8.885,60.244c1.013,6.884,7.408,11.6,14.247,10.588l12.774-1.884   c4.099-0.604,6.931-4.416,6.326-8.514c-0.604-4.099-4.423-6.931-8.514-6.326l-10.352,1.526l-8.17-55.398   c15.302-2.14,30.53,1.749,42.94,10.97c11.875,8.822,19.82,21.526,22.56,35.975l-15.036,2.218c-4.098,0.604-6.93,4.416-6.325,8.515   s4.423,6.928,8.515,6.325l17.507-2.582c6.862-1.012,11.599-7.385,10.586-14.248c-2.862-19.409-13.111-36.542-28.859-48.242   c-15.749-11.7-35.111-16.563-54.52-13.706C199.204,317.53,193.717,317.305,189.87,322.479z"/>
	<path d="M109.5,158c0,19.575,15.925,35.5,35.5,35.5s35.5-15.925,35.5-35.5s-15.925-35.5-35.5-35.5S109.5,138.425,109.5,158z    M165.5,158c0,11.304-9.196,20.5-20.5,20.5s-20.5-9.196-20.5-20.5s9.196-20.5,20.5-20.5S165.5,146.696,165.5,158z"/>
	<path d="M333,420.5c19.575,0,35.5-15.925,35.5-35.5s-15.925-35.5-35.5-35.5s-35.5,15.925-35.5,35.5S313.425,420.5,333,420.5z    M333,364.5c11.304,0,20.5,9.196,20.5,20.5s-9.196,20.5-20.5,20.5s-20.5-9.196-20.5-20.5S321.696,364.5,333,364.5z"/>
	<path d="M242,258.5c19.575,0,35.5-15.925,35.5-35.5s-15.925-35.5-35.5-35.5s-35.5,15.925-35.5,35.5S222.425,258.5,242,258.5z    M242,202.5c11.304,0,20.5,9.196,20.5,20.5s-9.196,20.5-20.5,20.5s-20.5-9.196-20.5-20.5S230.696,202.5,242,202.5z"/>
	<path d="M288,79.5c-19.575,0-35.5,15.925-35.5,35.5s15.925,35.5,35.5,35.5s35.5-15.925,35.5-35.5S307.575,79.5,288,79.5z    M288,135.5c-11.304,0-20.5-9.196-20.5-20.5s9.196-20.5,20.5-20.5s20.5,9.196,20.5,20.5S299.304,135.5,288,135.5z"/>
	<path d="M228.5,132.259v-6c0-4.143-3.357-7.5-7.5-7.5s-7.5,3.357-7.5,7.5v6c0,4.143,3.357,7.5,7.5,7.5S228.5,136.401,228.5,132.259   z"/>
	<path d="M180.921,206.854l-5.688-1.909c-3.931-1.317-8.179,0.797-9.497,4.724s0.797,8.179,4.724,9.497l5.688,1.909   c0.792,0.266,1.597,0.392,2.388,0.392c3.134,0,6.057-1.98,7.109-5.115C186.963,212.424,184.848,208.172,180.921,206.854z"/>
	<path d="M401.095,285.926l-0.804,5.945c-0.555,4.104,2.323,7.883,6.428,8.438c0.341,0.046,0.68,0.068,1.015,0.068   c3.695,0,6.914-2.732,7.423-6.496l0.804-5.945c0.555-4.104-2.323-7.883-6.428-8.438   C405.433,278.943,401.649,281.821,401.095,285.926z"/>
	<path d="M309.888,185.337c2.618-3.21,2.138-7.935-1.073-10.552l-4.65-3.792c-3.209-2.617-7.935-2.137-10.552,1.073   c-2.618,3.21-2.138,7.935,1.073,10.552l4.65,3.792C302.539,189.022,307.265,188.554,309.888,185.337z"/>
	<path d="M345.66,133.76c2.63,0,5.184-1.386,6.556-3.846l2.924-5.239c2.019-3.617,0.723-8.186-2.894-10.204   c-3.616-2.021-8.187-0.724-10.204,2.894l-2.924,5.239c-2.019,3.617-0.723,8.186,2.894,10.204   C343.169,133.454,344.423,133.76,345.66,133.76z"/>
	<path d="M182.885,96.715l-4.518-3.948c-3.12-2.726-7.855-2.407-10.583,0.712c-2.726,3.119-2.407,7.857,0.712,10.583l4.518,3.948   c3.112,2.719,7.849,2.414,10.583-0.712C186.322,104.179,186.004,99.44,182.885,96.715z"/>
	<path d="M259.62,283.803l-2.747,5.334c-1.896,3.682-0.448,8.205,3.234,10.102c1.099,0.565,2.271,0.834,3.428,0.834   c2.719,0,5.343-1.484,6.674-4.068l2.747-5.334c1.896-3.682,0.448-8.205-3.234-10.102   C266.039,278.674,261.517,280.12,259.62,283.803z"/>
	<path d="M190.145,265.322c-3.221-2.609-7.943-2.112-10.549,1.105l-3.777,4.662c-2.607,3.219-2.112,7.941,1.105,10.549   c1.39,1.126,3.059,1.673,4.717,1.673c2.185,0,4.351-0.949,5.832-2.778l3.777-4.662C193.857,272.652,193.362,267.93,190.145,265.322   z"/>
	<path d="M263.472,411.744c-0.062-0.001-0.124-0.002-0.187-0.002c-4.057,0-7.395,3.238-7.494,7.316   c-0.101,4.142,3.174,7.58,7.314,7.682l5.999,0.146c0.062,0.001,0.124,0.002,0.187,0.002c4.057,0,7.395-3.238,7.494-7.316   c0.101-4.142-3.174-7.58-7.314-7.682L263.472,411.744z"/>
	<path d="M148.055,357.156c-3.443-2.306-8.101-1.383-10.405,2.058c-2.305,3.442-1.384,8.101,2.058,10.405l4.985,3.339   c1.282,0.858,2.732,1.27,4.167,1.27c2.418,0,4.792-1.168,6.238-3.327c2.305-3.442,1.384-8.101-2.058-10.405L148.055,357.156z"/>
</g>















</svg>
